<?xml version="1.0" encoding="UTF-8"?><svg id="a" xmlns="http://www.w3.org/2000/svg" viewBox="0 0 679.94 200.88"><defs><style>.b{fill:#fff;}</style></defs><path class="b" d="M150.57,125c4.56-16.42,4.62-32.62,1.27-49.13h14.27c.38,1.49,.88,3.08,1.19,4.7,3.04,16.08,2.43,31.91-3.54,47.29-.88,2.28-.48,3.31,1.69,4.58,21.82,12.72,37.28,30.91,46.05,54.62,1.61,4.36,2.48,9,3.77,13.82h-33.69c-.69-22.46-7.99-42.02-25.56-57.36-.78,1.11-1.51,2.16-2.25,3.2-14.35,20.05-33.63,32.15-58.12,35.48-45.73,6.22-83.15-25.33-92.47-61.94-3.58-14.04-3.7-28.15-.12-42.24,.38-1.48,.7-3.12,3.04-2.01-4.67,19.11-3.73,37.82,4.4,56.9,2.5-7.95,7.28-13.2,13.51-17.21,6.16-3.97,12.88-6.49,19.82-7.32-3.27-5.06-6.83-9.87-9.62-15.09-2.82-5.27-3.92-11.13-3.59-17.4h17.04c.39,8.44,3.59,15.65,10.61,20.76,4.72,3.44,10.04,4.98,15.94,4.75,6.92-.27,12.53-3.18,17.18-8.08,4.6-4.84,6.62-10.84,6.95-17.51h16.89c.49,6.03-.77,11.67-3.06,17.06-9.3,21.89-34.84,31.91-56.72,22.21-2.1-.93-3.95-1.16-5.92-.26-4.18,1.91-8.37,3.83-12.45,5.96-1.37,.72-2.56,1.95-3.56,3.17-4.76,5.79-2.34,13.37,4.9,15.37,4.48,1.24,8.83,.48,12.92-1.51,3.39-1.64,6.73-3.41,9.94-5.37,18.06-11.04,37.61-15.41,58.68-13.83,10.33,.77,20.28,3.03,30.57,6.4Zm-126.77,27.39c.21,.36,.38,.79,.68,1.11,12.42,13.37,27.29,22.51,45.44,25.64,13.23,2.28,26.34,1.82,38.83-3.66,16.56-7.27,27.6-20.23,36.09-35.71,2.15-3.92,2.14-3.96-1.73-6.18-20.56-11.82-41.77-12.59-63.1-2.7-9.88,4.58-19.18,10.43-28.65,15.86-5.37,3.08-10.84,5.85-17.11,6.18-3.42,.18-6.88-.34-10.45-.55Z"/><path class="b" d="M113.7,63.7c4.94-2,8.49-5.07,10.66-9.17,2.39-4.53,3.98-9.49,5.84-14.3,.84-2.17,.09-3.9-1.56-5.55-11.53-11.54-25.47-17.54-41.72-18.07-19.11-.62-36.11,5.43-51.4,16.67-6.72,4.94-13.85,8.77-22.55,8.47-6.38-.22-10.79-3.07-12.34-8.05-1.76-5.67,.34-12.75,4.85-16.09,.72-.53,1.67-1.01,2.54-1.06,2.51-.14,5.04-.05,7.44-.05-.78,2.21-1.78,4.23-2.17,6.36-.77,4.22-.14,8.26,3.76,10.78,4.12,2.66,8.57,2.81,12.84,.23,5.32-3.21,10.39-6.86,15.83-9.85,16.75-9.22,34.77-11.52,53.42-8.48,28.71,4.67,48.53,21.45,61.91,46.6,.96,1.81,1.56,3.82,2.63,6.48-4.57,0-8.73,.06-12.89-.09-.48-.02-1.03-1.18-1.36-1.89-1.96-4.25-3.87-8.53-5.88-12.99-.81,.44-1.26,.57-1.57,.86-6.95,6.5-15.14,10.42-24.48,12.1-1.04,.19-1.93,1.13-2.95,1.59-.64,.29-1.39,.46-2.09,.47-3.86,.05-7.74-.12-11.59,.1-2.43,.13-3.6-.66-4.6-2.94-6.52-14.8-24.91-19.92-37.77-10.6-4.05,2.93-7.22,6.65-9.01,11.36-.6,1.59-1.37,2.15-3.07,2.11-4.88-.12-9.77-.04-14.66-.04-.12-9.25,9.86-27.61,28.9-33.27,11.23-3.34,22.11-2.26,32.32,3.2,10.1,5.4,16.95,13.87,20.73,25.11Z"/><path class="b" d="M515.21,69.26c2.07-22.24,31.15-43.03,60-24.57,0-5.15,.02-9.88,0-14.61-.04-8.95-.06-17.9-.18-26.84-.03-2.39,.76-3.38,3.29-3.22,3.1,.2,6.22,.1,9.32,0,1.82-.06,2.55,.63,2.55,2.44,.01,7.91,.11,15.82,.13,23.73,.03,13.28-.04,26.57,.07,39.85,.02,2.4-.45,3.42-3.08,3.23-3.09-.23-6.22-.17-9.32,.02-2.57,.15-3.93-.61-5.06-3.16-4.44-10.07-15.58-15.39-26.23-12.67-7.3,1.87-12.49,6.5-15.46,13.37-.83,1.93-1.78,2.53-3.73,2.47-4.03-.11-8.07-.03-12.31-.03Z"/><path class="b" d="M184.6,75.74h15.4c.66,7.32,3.2,13.64,9.22,18.07,4.55,3.35,9.67,4.94,15.37,4.6,10.87-.65,19-9.38,20.8-22.58h15.29v37.41h-14.96c-.14-1.97-.28-4.07-.46-6.52-15.3,9.77-30.53,10.28-45.21-.28-10.17-7.31-15.05-17.8-15.45-30.7Z"/><path class="b" d="M514.24,75.73h15.39c.48,7.83,3.52,14.34,10.14,18.87,4.29,2.93,9.06,4.12,14.19,3.79,11.26-.72,18.78-8.71,21.22-22.75,3.96,0,7.99,0,12.01,0,1.01,0,2.02,0,3.32,0-.87,13.99-6.13,25.28-17.98,32.48-13.37,8.12-27.27,8.38-40.63-.05-11.59-7.32-17.1-18.35-17.68-32.34Z"/><path class="b" d="M487.49,75.74h14.97c-.12,12.3-4.8,22.35-14.22,29.78-12.62,9.95-26.76,11.6-41.06,4.35-13.53-6.86-20.24-18.59-20.79-34.08h15.27c.48,7.49,3.35,13.86,9.48,18.38,4.22,3.12,9.02,4.51,14.31,4.32,11.25-.39,18.27-7.52,22.04-22.76Z"/><path class="b" d="M605.2,69.05c-.21-15.45,18.41-31.45,36.53-31.63,23.04-.23,36.81,18.93,37.64,31.63h-74.17Zm56.45-4.78c-2.48-6.5-11.31-11.66-19.48-11.64-8.33,.01-16.9,5.11-19.26,11.64h38.74Z"/><path class="b" d="M338.72,75.78h15.28c.39,6.62,2.69,12.34,7.54,16.85,3.56,3.3,7.82,5.26,12.64,5.76,11.31,1.17,19.45-4.52,24.85-17.35h15.44c-1.64,11.84-7.52,20.93-17.43,27.05-13.14,8.11-26.74,8.22-40.11,.34-11.13-6.56-19.32-21.42-18.22-32.64Z"/><path class="b" d="M664.42,80.99h15.52c-1.71,12.4-7.9,21.71-18.44,27.68-13.27,7.51-26.92,7.59-39.88-.82-11.35-7.37-16.93-18.24-17.5-32.05h15.14c3.73,14.92,10.14,21.81,20.77,22.61,9.44,.71,20.43-4.02,24.39-17.42Z"/><path class="b" d="M259.84,69.26c-4.71,0-9.23,.11-13.73-.1-.86-.04-2.02-1.2-2.43-2.11-5.81-13.11-20.25-18.06-32.57-10.95-4.35,2.51-7.7,6.08-9.42,10.9-.61,1.7-1.54,2.28-3.33,2.23-4.22-.12-8.44-.04-12.66-.04-.22-15.69,18.96-31.93,37.3-31.81,18.16,.12,37.18,16.37,36.84,31.88Z"/><path class="b" d="M501.57,69.27c-4.79,0-9.39,.08-13.98-.09-.67-.03-1.55-1.15-1.92-1.95-3.74-8.18-9.88-13.3-18.9-14.23-9.13-.95-16.33,2.74-21.59,10.21-.43,.61-1,1.26-1.11,1.95-.64,4.09-3.33,4.42-6.75,4.14-3.27-.27-6.57-.06-9.84-.06-1.65-11.99,15.56-29.22,30.62-31.35,24.8-3.51,41.57,15.19,43.47,31.38Z"/><path class="b" d="M339.76,69.21c-.35-15.08,17.04-30.62,35.58-31.68,18.82-1.07,33.84,12.61,37.17,26.25-5.12,0-10.18,.05-15.23-.07-.64-.02-1.38-.85-1.86-1.47-11.05-14.34-31.7-12.19-39.35,4.2-.98,2.11-2.02,2.95-4.35,2.82-3.93-.21-7.87-.06-11.95-.06Z"/><path class="b" d="M292.13,3.44c0,3.1,0,5.9,0,8.7-.02,17.91-.08,35.81,0,53.72,.01,2.77-.97,3.59-3.61,3.41-2.81-.19-5.66-.15-8.48,.04-2.39,.16-3.05-.73-3.03-3.05,.1-14.04,.06-28.09,.08-42.13,0-6.03,.09-12.07,.01-18.1-.02-1.95,.63-2.67,2.6-2.62,3.95,.11,7.91,.03,12.42,.03Z"/><path class="b" d="M292.11,75.69v37.64h-15.02v-37.64h15.02Z"/><path class="b" d="M308.97,113.45v-37.66h15.3c.06,1.09,.17,2.11,.18,3.12,.02,10.55-.01,21.11,.08,31.66,.02,2.16-.56,3.02-2.86,2.92-4.12-.17-8.26-.05-12.7-.05Z"/><path class="b" d="M309.21,39.7c4.54,0,9.03-.06,13.52,.09,.5,.02,1.38,1.2,1.39,1.85,.1,8.57,.11,17.14,.02,25.7,0,.63-.93,1.77-1.46,1.79-4.41,.15-8.82,.08-13.47,.08v-29.51Z"/><path class="b" d="M324.82,11.82c.02,4.57-3.44,8.14-7.95,8.2-4.65,.06-8.38-3.56-8.36-8.11,.03-4.69,3.63-8.33,8.23-8.32,4.29,.02,8.06,3.85,8.07,8.23Z"/></svg>